<svg width="24.593" height="70.607" version="1.1" viewBox="0 0 24.593 70.607" xmlns="http://www.w3.org/2000/svg">
  <g transform="matrix(1.2944 0 0 1.1817 -114.8 -108.94)">
    <path d="m92.084 118.12c1.8403-1.232 10.85-0.48368 12.898 0.16536 1.0406 0.11146 1.9651 1.523 2.575 2.7876-0.37468 15.512-2.8144 20.316-5.3626 26.411-1.1543 1.5589-2.0368 2.4484-3.638 4.3231l-0.56696-0.0472-0.56696-0.85045c-1.5906-1.6694-3.1183-3.6538-4.583-5.9531-2.5945-6.9419-3.4522-14.567-4.016-21.923 0.61498-2.2406 1.5176-4.1138 3.26-4.9137z" style="fill:none;stroke-width:.26458px;stroke:#000"/>
    <path d="m88.824 123.04c0.20586 0.23281 0.18036 0.17149 0.44362 0.17149 0.04454 0 0.09138-0.0141 0.13363 0 0.02988 0.01 0.03865 0.0527 0.06682 0.0668 0.01992 0.01 0.0469-0.01 0.06682 0 0.02817 0.0141 0.03694 0.0568 0.06682 0.0668 0.03974 0.0133 0.31919-0.0149 0.33409 0 0.03522 0.0352 0.02537 0.10601 0.06682 0.13364 0.03706 0.0247 0.09042-0.0108 0.13363 0 0.04832 0.0121 0.08532 0.0547 0.13364 0.0668 0.04322 0.0108 0.08909 0 0.13364 0h0.4009c0.02545 0 0.3276-6e-3 0.33409 0 0.01574 0.0157-0.01992 0.0568 0 0.0668 0.03984 0.0199 0.09042-0.0108 0.13363 0 0.04832 0.0121 0.08532 0.0547 0.13364 0.0668 0.06057 0.0151 0.25647 0 0.33409 0h3.0736" style="fill:none;stroke-width:.26458px;stroke:#000"/>
    <path d="m107.44 126.08c0.0278 0.11129-0.42408 0.045-0.46772 0.0668-0.0564 0.0282-0.0773 0.10547-0.13364 0.13364-0.0199 0.01-0.0445 0-0.0668 0h-0.86862c-0.0774 0-0.27444-0.0149-0.33409 0-0.0483 0.0121-0.0853 0.0547-0.13363 0.0668-0.0432 0.0108-0.0891 0-0.13364 0h-4.2764" style="fill:none;stroke-width:.26458px;stroke:#000"/>
    <path d="m107.31 127.75h-2.94c-0.0223 0-0.0511 0.0157-0.0668 0s0.0199-0.0569 0-0.0668c-0.0157-8e-3 -0.22338 0-0.26727 0h-3.3409" style="fill:none;stroke-width:.26458px;stroke:#000"/>
    <path d="m89.869 133.3h4.2763c0.04454 0 0.13364-0.0445 0.13364 0s-0.16514 0.0315-0.13364 0c0.0498-0.0498 0.13212-0.0497 0.20045-0.0668 0.12925-0.0323 0.07032 0.0633 0.20045-0.0668" style="fill:none;stroke-width:.26458px;stroke:#000"/>
    <path d="m89.803 134.97h3.0068c0.06682 0 0.13706 0.0211 0.20045 0 0.02988-0.01 0.03865-0.0527 0.06682-0.0668 0.03942-0.0197 0.15449 0.0153 0.20045 0 0.48398-0.16133-0.10535 0.0193 0.20045-0.13363 0.01992-0.01 0.04455 0 0.06682 0h0.60135" style="fill:none;stroke-width:.26458px;stroke:#000"/>
    <path d="m104.24 141.58h-3.274c-0.0668 0-0.13454 0.011-0.20045 0-0.18564 0.12997-0.17064-0.10948-0.26727-0.13364-0.0648-0.0162-0.13563 0.0162-0.20045 0-0.0306-8e-3 -0.0369-0.0568-0.0668-0.0668-0.0845-0.0282-0.18758 0.0398-0.26727 0-0.05635-0.0282-0.07515-0.11024-0.13364-0.13364-0.06204-0.0248-0.13363 0-0.20045 0h-0.20045c-0.02228 0-0.04569 7e-3 -0.06682 0-0.23034-0.0768-0.0495-0.0668-0.20045-0.0668h-0.46773c-0.02228 0-0.06681 0.0223-0.06681 0s0.04454 0 0.06681 0" style="fill:none;stroke-width:.26458px;stroke:#000"/>
  </g>
  <path d="m9.6444 29.821c-4.5683-3.294-4.5961-5.3955-4.6135-7.633 0.72228-1.0142 2.3135-0.57321 2.8802 0.046153-2.0954-3.3504-4.7036-6.26-3.5522-10.64 0.66594-1.1677 2.8775 0.32504 3.6863 1.3335-0.6423-2.4932-2.7987-4.2493-1.3184-7.9106 2.0205-2.4075 3.9283-1.7849 4.5608 1.401 0.353-4.3443 1.7863-6.1166 3.8772-6.3232 2.1098 0.47059 1.288 3.7681 1.2305 6.3285 3.5051-4.2554 7.4778-3.7716 1.4942 5.6253 6.7184-2.614 6.3779 0.32643 0.33559 8.4016 1.2342-0.87049 11.099-4.423-1.8127 9.6178z" style="fill:none;stroke-width:.246;stroke:#000"/>
</svg>
