<svg width="24.593" height="70.607" version="1.1" viewBox="0 0 24.593 70.607" xmlns="http://www.w3.org/2000/svg">
  <g transform="matrix(1.2944 0 0 1.1817 -114.8 -108.94)">
    <path d="m92.084 118.12c1.8403-1.232 10.85-0.48368 12.898 0.16536 1.0406 0.11146 1.9651 1.523 2.575 2.7876-0.37468 15.512-2.8144 20.316-5.3626 26.411-1.1543 1.5589-2.0368 2.4484-3.638 4.3231l-0.56696-0.0472-0.56696-0.85045c-1.5906-1.6694-3.1183-3.6538-4.583-5.9531-2.5945-6.9419-3.4522-14.567-4.016-21.923 0.61498-2.2406 1.5176-4.1138 3.26-4.9137z" style="fill:none;stroke-width:.26458px;stroke:#000"/>
    <path d="m88.824 123.04c0.20586 0.23281 0.18036 0.17149 0.44362 0.17149 0.04454 0 0.09138-0.0141 0.13363 0 0.02988 0.01 0.03865 0.0527 0.06682 0.0668 0.01992 0.01 0.0469-0.01 0.06682 0 0.02817 0.0141 0.03694 0.0568 0.06682 0.0668 0.03974 0.0133 0.31919-0.0149 0.33409 0 0.03522 0.0352 0.02537 0.10601 0.06682 0.13364 0.03706 0.0247 0.09042-0.0108 0.13363 0 0.04832 0.0121 0.08532 0.0547 0.13364 0.0668 0.04322 0.0108 0.08909 0 0.13364 0h0.4009c0.02545 0 0.3276-6e-3 0.33409 0 0.01574 0.0157-0.01992 0.0568 0 0.0668 0.03984 0.0199 0.09042-0.0108 0.13363 0 0.04832 0.0121 0.08532 0.0547 0.13364 0.0668 0.06057 0.0151 0.25647 0 0.33409 0h3.0736" style="fill:none;stroke-width:.26458px;stroke:#000"/>
    <path d="m107.44 126.08c0.0278 0.11129-0.42408 0.045-0.46772 0.0668-0.0564 0.0282-0.0773 0.10547-0.13364 0.13364-0.0199 0.01-0.0445 0-0.0668 0h-0.86862c-0.0774 0-0.27444-0.0149-0.33409 0-0.0483 0.0121-0.0853 0.0547-0.13363 0.0668-0.0432 0.0108-0.0891 0-0.13364 0h-4.2764" style="fill:none;stroke-width:.26458px;stroke:#000"/>
    <path d="m107.31 127.75h-2.94c-0.0223 0-0.0511 0.0157-0.0668 0s0.0199-0.0569 0-0.0668c-0.0157-8e-3 -0.22338 0-0.26727 0h-3.3409" style="fill:none;stroke-width:.26458px;stroke:#000"/>
    <path d="m89.869 133.3h4.2763c0.04454 0 0.13364-0.0445 0.13364 0s-0.16514 0.0315-0.13364 0c0.0498-0.0498 0.13212-0.0497 0.20045-0.0668 0.12925-0.0323 0.07032 0.0633 0.20045-0.0668" style="fill:none;stroke-width:.26458px;stroke:#000"/>
    <path d="m89.803 134.97h3.0068c0.06682 0 0.13706 0.0211 0.20045 0 0.02988-0.01 0.03865-0.0527 0.06682-0.0668 0.03942-0.0197 0.15449 0.0153 0.20045 0 0.48398-0.16133-0.10535 0.0193 0.20045-0.13363 0.01992-0.01 0.04455 0 0.06682 0h0.60135" style="fill:none;stroke-width:.26458px;stroke:#000"/>
    <path d="m104.24 141.58h-3.274c-0.0668 0-0.13454 0.011-0.20045 0-0.18564 0.12997-0.17064-0.10948-0.26727-0.13364-0.0648-0.0162-0.13563 0.0162-0.20045 0-0.0306-8e-3 -0.0369-0.0568-0.0668-0.0668-0.0845-0.0282-0.18758 0.0398-0.26727 0-0.05635-0.0282-0.07515-0.11024-0.13364-0.13364-0.06204-0.0248-0.13363 0-0.20045 0h-0.20045c-0.02228 0-0.04569 7e-3 -0.06682 0-0.23034-0.0768-0.0495-0.0668-0.20045-0.0668h-0.46773c-0.02228 0-0.06681 0.0223-0.06681 0s0.04454 0 0.06681 0" style="fill:none;stroke-width:.26458px;stroke:#000"/>
  </g>
  <path d="m15.025 0-0.01953 2e-3c-1.0602 0.1061-1.9687 0.6257-2.6387 1.6602-0.614 0.94802-1.0085 2.385-1.209 4.2832-0.34377-1.2926-0.88946-2.1847-1.6504-2.4258-0.43097-0.13655-0.90603-0.0819-1.3926 0.1582-0.48654 0.24011-0.98755 0.66444-1.4922 1.2734l-0.013672 0.01367-0.00586 0.01758c-0.73821 1.8494-0.57033 3.2431-0.13672 4.4648 0.38298 1.0791 0.91834 2.0402 1.2617 3.0859-0.4271-0.43952-0.92984-0.91902-1.5273-1.209-0.37337-0.18122-0.74633-0.2984-1.0859-0.28906-0.33961 0.0093-0.65255 0.16062-0.83594 0.48633l-0.00781 0.01563-0.00391 0.01367c-0.57364 2.2102-0.20848 4.0631 0.55664 5.7676 0.71415 1.5909 1.7827 3.0604 2.7559 4.6016-0.30803-0.21172-0.62345-0.44373-1.0449-0.49024-0.57972-0.06396-1.2036 0.09214-1.5879 0.63867l-0.021484 0.03125v0.03906c0.00858 1.1179 0.060449 2.2656 0.68164 3.541 0.62119 1.2754 1.8071 2.6737 4.0645 4.3223l0.029297 0.02148 0.037109 2e-3 6.459 0.23047 0.03711-0.04297c3.1793-3.5017 4.9657-5.9159 5.8418-7.5684 0.43805-0.82624 0.65124-1.4634 0.68945-1.959 0.03822-0.49563-0.10955-0.85822-0.38281-1.082-0.27326-0.22381-0.6518-0.30796-1.0664-0.3125-0.41461-0.0045-0.86917 0.07076-1.3125 0.18359-0.71819 0.18279-1.2471 0.45028-1.6562 0.67578 1.3487-1.8445 2.4555-3.4681 3.1738-4.752 0.76829-1.373 1.1716-2.4204 1.1719-3.1719 1.62e-4 -0.37574-0.10699-0.68593-0.33398-0.89844s-0.55795-0.32007-0.97852-0.33789c-0.77942-0.03303-1.9742 0.3038-3.4531 0.86328 1.3561-2.1928 2.233-3.9524 2.627-5.2051 0.20632-0.65598 0.29916-1.1917 0.29687-1.6211-0.0023-0.42943-0.10035-0.75634-0.29492-0.97656-0.19457-0.22022-0.48053-0.31821-0.80078-0.30273-0.32025 0.01548-0.68191 0.13566-1.0723 0.34375-0.71066 0.37884-1.5248 1.1335-2.3203 2.0586 0.0489-1.1977 0.22905-2.5293 0.18164-3.6602-0.02552-0.60889-0.11722-1.1602-0.3457-1.5996-0.22848-0.43938-0.60387-0.76237-1.1543-0.88672zm-0.02149 0.25195c0.47601 0.1127 0.77928 0.36881 0.97852 0.75195 0.20195 0.38835 0.29362 0.90595 0.31836 1.4961 0.04948 1.1803-0.16486 2.6403-0.19336 3.9277l-0.0078 0.35352 0.22266-0.27539c0.85431-1.0505 1.7385-1.8058 2.4766-2.1992 0.36904-0.19672 0.70116-0.30152 0.96875-0.31445 0.26759-0.01293 0.46387 0.05849 0.60547 0.21875 0.1416 0.16026 0.23229 0.42592 0.23438 0.81836 0.0021 0.39244-0.08589 0.9071-0.28711 1.5469-0.40245 1.2795-1.2564 3.0591-2.7246 5.3945l-0.19726 0.31445 0.3457-0.13672c1.6456-0.64848 2.8557-0.94667 3.625-0.91406 0.38466 0.0163 0.65201 0.1121 0.82226 0.27148 0.17026 0.15939 0.25796 0.39006 0.25781 0.7207-2.84e-4 0.66129-0.38069 1.6946-1.1406 3.0527s-1.8925 3.0454-3.377 5.0547l0.16797 0.17188c0.27238-0.19458 1.1041-0.57634 1.9629-0.79492 0.4294-0.10929 0.86899-0.17997 1.252-0.17578 0.38296 0.0042 0.70476 0.08443 0.91406 0.25586 0.2093 0.17143 0.32703 0.43517 0.29297 0.87695-0.03406 0.44178-0.23125 1.0523-0.66016 1.8613-0.85385 1.6105-2.6266 4.0106-5.7715 7.4785l-6.3008-0.22461c-2.2161-1.6235-3.3673-2.9881-3.9629-4.2109-0.58761-1.2065-0.64235-2.2839-0.65234-3.375 0.32712-0.44138 0.82447-0.58161 1.334-0.52539 0.52008 0.05738 1.0328 0.31658 1.2832 0.59375l0.19336-0.14453c-0.00382-0.0062-0.0079-0.0114-0.011719-0.01758-1.0314-1.6681-2.1784-3.2199-2.9258-4.8848-0.74718-1.6645-1.0947-3.4392-0.54492-5.582 0.14388-0.24727 0.34599-0.34992 0.61914-0.35742 0.2775-0.0076 0.62069 0.09284 0.97266 0.26367 0.70393 0.34166 1.4417 0.96032 1.8242 1.4434l0.21289-0.10547c-0.32231-1.2672-1.0125-2.3292-1.4336-3.5156-0.41951-1.182-0.58005-2.4847 0.12891-4.2734 0.48363-0.5797 0.95751-0.97868 1.3965-1.1953 0.44394-0.21908 0.84834-0.26004 1.2129-0.14453 0.72911 0.23102 1.3414 1.1292 1.6484 2.6953l0.24024-0.01367c0.17271-2.1528 0.61184-3.6583 1.248-4.6406 0.63031-0.97319 1.4471-1.4354 2.4316-1.541z" style="color-rendering:auto;color:#000000;dominant-baseline:auto;font-feature-settings:normal;font-variant-alternates:normal;font-variant-caps:normal;font-variant-ligatures:normal;font-variant-numeric:normal;font-variant-position:normal;image-rendering:auto;isolation:auto;mix-blend-mode:normal;shape-padding:0;shape-rendering:auto;solid-color:#000000;text-decoration-color:#000000;text-decoration-line:none;text-decoration-style:solid;text-indent:0;text-orientation:mixed;text-transform:none;white-space:normal"/>
</svg>
