<?xml version="1.0" encoding="UTF-8" standalone="no"?>
<svg
   xmlns:dc="http://purl.org/dc/elements/1.1/"
   xmlns:cc="http://creativecommons.org/ns#"
   xmlns:rdf="http://www.w3.org/1999/02/22-rdf-syntax-ns#"
   xmlns:svg="http://www.w3.org/2000/svg"
   xmlns="http://www.w3.org/2000/svg"
   xmlns:sodipodi="http://sodipodi.sourceforge.net/DTD/sodipodi-0.dtd"
   xmlns:inkscape="http://www.inkscape.org/namespaces/inkscape"
   width="25.757252"
   height="93.378456"
   version="1.1"
   viewBox="0 0 25.757252 93.378456"
   id="svg2911"
   sodipodi:docname="danvers.svg"
   inkscape:version="0.92.3 (2405546, 2018-03-11)">
  <metadata
     id="metadata2917">
    <rdf:RDF>
      <cc:Work
         rdf:about="">
        <dc:format>image/svg+xml</dc:format>
        <dc:type
           rdf:resource="http://purl.org/dc/dcmitype/StillImage" />
      </cc:Work>
    </rdf:RDF>
  </metadata>
  <defs
     id="defs2915" />
  <sodipodi:namedview
     pagecolor="#ffffff"
     bordercolor="#666666"
     borderopacity="1"
     objecttolerance="10"
     gridtolerance="10"
     guidetolerance="10"
     inkscape:pageopacity="0"
     inkscape:pageshadow="2"
     inkscape:window-width="1920"
     inkscape:window-height="1012"
     id="namedview2913"
     showgrid="false"
     inkscape:zoom="6.3353847"
     inkscape:cx="-27.403566"
     inkscape:cy="39.176274"
     inkscape:window-x="-8"
     inkscape:window-y="-8"
     inkscape:window-maximized="1"
     inkscape:current-layer="svg2911" />
  <g
     transform="matrix(1.0161894,0,0,1.0161894,-97.324091,-62.36304)"
     id="g2909">
    <g
       transform="translate(-17.693,-16.637)"
       id="g2907">
      <path
         d="m 118.54,118.24 c 3.8754,-1.4786 8.1011,-0.7794 12.095,-0.28348 1.5683,1.4809 2.9046,3.334 3.047,5.5554 0.53344,2.3686 0.24975,4.8765 0.28532,7.3025 -0.19628,5.8955 -0.88076,11.78 -1.8879,17.586 -1.4107,5.7033 -2.8213,11.407 -4.232,17.11 -1.2785,1.1974 -2.3191,2.7894 -3.0889,4.2243 -1.0212,-0.36135 -1.0211,-2.6806 -2.5484,-3.1784 -2.1241,-1.297 -1.7466,-4.2618 -2.602,-6.3777 -1.4631,-6.054 -2.7682,-12.152 -3.986,-18.256 -0.67124,-6.3809 -2.1752,-13.126 0.34948,-19.304 0.63725,-1.5744 1.5131,-3.0487 2.5683,-4.3786 z"
         style="fill:none;stroke:#000000;stroke-width:0.26458001px"
         id="path2889"
         inkscape:connector-curvature="0" />
      <path
         d="m 115.19,124.81 c 1.0629,0.12517 2.2698,0.25016 3.274,0.4676 0.6832,0.15313 1.4379,0.0331 2.0713,0.2672"
         style="fill:none;stroke:#000000;stroke-width:0.26458001px"
         id="path2891"
         inkscape:connector-curvature="0" />
      <path
         d="m 114.59,126.88 c 0.93355,0.36324 1.9244,0.44946 2.8731,0.60126 1.2173,0.14431 2.4986,0.0305 3.7418,0.0668"
         style="fill:none;stroke:#000000;stroke-width:0.26458001px"
         id="path2893"
         inkscape:connector-curvature="0" />
      <path
         d="m 133.97,132.36 c -1.2592,0.0503 -2.4543,-0.0549 -3.6749,-0.1336 -0.55331,-0.0763 -1.1643,-0.14123 -1.8709,-0.26723"
         style="fill:none;stroke:#000000;stroke-width:0.26458001px"
         id="path2895"
         inkscape:connector-curvature="0" />
      <path
         d="m 134.04,134.1 c -1.6299,0.0108 -3.2179,0.0112 -4.8108,-0.1336 -0.22202,-0.29031 -0.95697,-0.0611 -1.3363,-0.1336"
         style="fill:none;stroke:#000000;stroke-width:0.26458001px"
         id="path2897"
         inkscape:connector-curvature="0" />
      <path
         d="m 115.46,139.71 c 1.078,0.39547 2.315,0.11549 3.4663,0.20045 h 1.9459"
         style="fill:none;stroke:#000000;stroke-width:0.26458001px"
         id="path2899"
         inkscape:connector-curvature="0" />
      <path
         d="m 132.24,147.75 c 0.66529,-1.4966 -0.70283,-1.2206 -1.7077,-1.2194 -1.1479,0.0878 -2.1909,-0.15991 -3.3164,-0.1336 -0.0184,-0.23237 -0.83517,-0.0967 -1.1359,-0.13364"
         style="fill:none;stroke:#000000;stroke-width:0.26458001px"
         id="path2901"
         inkscape:connector-curvature="0" />
      <path
         d="m 118.33,155.21 c 0.89357,0.15598 1.781,0.32688 2.7638,0.2672 0.86175,-0.0214 1.7059,0.0879 2.4478,-0.2004 l -0.0668,0.0668"
         style="fill:none;stroke:#000000;stroke-width:0.26458001px"
         id="path2903"
         inkscape:connector-curvature="0" />
      <path
         d="m 118.73,156.68 c 1.1235,0.28582 2.3668,0.0641 3.5413,0.13363 0.63225,-0.0393 1.2512,-0.0755 1.804,-0.26723"
         style="fill:none;stroke:#000000;stroke-width:0.26458001px"
         id="path2905"
         inkscape:connector-curvature="0" />
    </g>
  </g>
  <g
     id="g3469"
     transform="translate(1.7789439,-17.941406)">
    <path
       style="color:#000000;font-style:normal;font-variant:normal;font-weight:normal;font-stretch:normal;font-size:medium;line-height:normal;font-family:sans-serif;font-variant-ligatures:normal;font-variant-position:normal;font-variant-caps:normal;font-variant-numeric:normal;font-variant-alternates:normal;font-feature-settings:normal;text-indent:0;text-align:start;text-decoration:none;text-decoration-line:none;text-decoration-style:solid;text-decoration-color:#000000;letter-spacing:normal;word-spacing:normal;text-transform:none;writing-mode:lr-tb;direction:ltr;text-orientation:mixed;dominant-baseline:auto;baseline-shift:baseline;text-anchor:start;white-space:normal;shape-padding:0;clip-rule:nonzero;display:inline;overflow:visible;visibility:visible;opacity:1;isolation:auto;mix-blend-mode:normal;color-interpolation:sRGB;color-interpolation-filters:linearRGB;solid-color:#000000;solid-opacity:1;vector-effect:none;fill:#000000;fill-opacity:1;fill-rule:nonzero;stroke:none;stroke-width:0.32974514px;stroke-linecap:butt;stroke-linejoin:miter;stroke-miterlimit:4;stroke-dasharray:none;stroke-dashoffset:0;stroke-opacity:1;color-rendering:auto;image-rendering:auto;shape-rendering:auto;text-rendering:auto;enable-background:accumulate"
       d="m 13.251953,17.941406 -0.02734,0.002 C 11.781666,18.08598 10.545392,18.782723 9.6328165,20.173875 8.7958671,21.44974 8.2592115,23.385931 7.9863321,25.941453 7.518188,24.198812 6.7747163,22.998064 5.7382812,22.673828 5.1520877,22.490445 4.5040408,22.564047 3.8417969,22.886719 3.179553,23.209391 2.4958542,23.776833 1.8085938,24.595703 l -0.015625,0.02148 -0.00977,0.02344 c -1.00549799,2.487066 -0.7761658,4.360834 -0.1855469,6.003906 0.5220628,1.452352 1.2513705,2.745474 1.71875,4.152344 -0.5819891,-0.592489 -1.2681823,-1.23992 -2.08398,-1.630857 -0.50828885,-0.243577 -1.0168274,-0.399245 -1.47851565,-0.386719 -0.46168825,0.01253 -0.88476175,0.215905 -1.13476565,0.654297 l -0.00977,0.01758 -0.00586,0.02148 c -0.7813552,2.972411 -0.2842729,5.463875 0.75781252,7.75586 0.97212423,2.13811 2.42735438,4.112738 3.75195308,6.183593 -0.4195848,-0.285278 -0.8494791,-0.595635 -1.4238281,-0.658203 -0.78872479,-0.08592 -1.63655001,0.124178 -2.16015622,0.859375 l -0.03125,0.04297 v 0.05273 c 0.0116893,1.503114 0.0816033,3.046466 0.92773437,4.761719 0.84613105,1.715253 2.46111155,3.593998 5.53515625,5.810547 l 0.052734,0.03906 0.064453,-0.0098 c 2.7739388,-0.357357 5.7460135,-0.320114 8.9433585,0.160156 l 0.08789,0.01172 0.05859,-0.06445 c 4.329721,-4.708339 6.745931,-7.94515 7.914062,-10.154297 0.584066,-1.104574 0.857146,-1.953079 0.892578,-2.613281 0.03543,-0.660202 -0.184914,-1.142647 -0.574218,-1.431641 -0.77861,-0.577987 -2.096233,-0.432389 -3.328125,-0.115234 -1.001344,0.257799 -1.735513,0.623304 -2.296875,0.929687 1.83581,-2.478945 3.342287,-4.660994 4.320313,-6.386719 1.046325,-1.846239 1.597217,-3.254037 1.597656,-4.265625 2.2e-4,-0.505793 -0.147963,-0.923312 -0.457031,-1.208984 -0.309068,-0.285672 -0.759755,-0.429179 -1.332031,-0.453125 -1.055513,-0.04417 -2.678268,0.409445 -4.677736,1.154297 1.863175,-2.969406 3.01347,-5.297418 3.552735,-6.990235 0.281025,-0.88217 0.407411,-1.603768 0.404297,-2.18164 -0.0031,-0.577872 -0.137291,-1.020216 -0.402344,-1.316406 -0.265053,-0.296191 -0.652447,-0.425076 -1.087891,-0.404297 -0.435444,0.02078 -0.927547,0.183187 -1.458984,0.46289 -0.967235,0.50907 -2.07702,1.522302 -3.160156,2.765625 0.06677,-1.609467 0.308682,-3.397849 0.24414,-4.917968 -0.03477,-0.818926 -0.159354,-1.561194 -0.470703,-2.152344 -0.311348,-0.591151 -0.821468,-1.024374 -1.570312,-1.191406 z m -0.02734,0.341797 c 0.647427,0.152022 1.061266,0.49567 1.332032,1.009766 0.274815,0.521786 0.399914,1.218483 0.433593,2.011719 0.06736,1.586471 -0.226805,3.546049 -0.265625,5.277343 l -0.0098,0.476563 0.302734,-0.367188 c 1.163368,-1.412413 2.365667,-2.42786 3.371094,-2.957031 0.502713,-0.264585 0.955227,-0.406407 1.320312,-0.423828 0.365086,-0.01742 0.633427,0.07953 0.826172,0.294922 0.192745,0.215388 0.317472,0.570481 0.320313,1.097656 0.0028,0.527175 -0.116651,1.220042 -0.390625,2.080078 -0.547948,1.720073 -1.713436,4.111868 -3.712891,7.251953 l -0.269531,0.423828 0.46875,-0.18164 c 2.241094,-0.871962 3.890851,-1.272394 4.939453,-1.228516 0.524301,0.02194 0.889183,0.150879 1.121094,0.365234 0.231911,0.214356 0.351755,0.522813 0.351562,0.966797 -3.86e-4,0.887969 -0.519855,2.275602 -1.554687,4.101563 -1.034833,1.82596 -2.578119,4.097226 -4.59961,6.798828 l 0.226563,0.234375 c 0.370804,-0.261534 1.522878,-0.785869 2.71875,-1.09375 1.195871,-0.307881 2.445452,-0.385406 3.048828,0.0625 0.301688,0.223953 0.474642,0.565559 0.443359,1.148437 -0.03128,0.582879 -0.286221,1.396321 -0.857422,2.476563 -1.136783,2.149862 -3.532419,5.366979 -7.8125,10.027344 C 11.817467,57.670344 8.8717333,57.632809 6.1152344,57.980469 3.1012219,55.799497 1.5310152,53.96686 0.72070312,52.324219 -0.08134714,50.698325 -0.15465776,49.248133 -0.16796875,47.777344 0.27736091,47.185822 0.9585326,47.00645 1.6523438,47.082031 c 0.7090045,0.07724 1.4071699,0.426236 1.7480468,0.798828 L 3.6621094,47.683594 C 2.2534629,45.431225 0.68352323,43.338316 -0.33789062,41.091797 -1.3553298,38.85402 -1.828738,36.46856 -1.0800781,33.587891 c 0.19569506,-0.331821 0.47109336,-0.468406 0.84374998,-0.478516 0.37870617,-0.01027 0.84669144,0.123744 1.32617192,0.353516 0.9589608,0.459542 1.9635902,1.292047 2.484375,1.941406 L 3.8613281,35.259766 C 3.4222513,33.55541 2.4815023,32.128092 1.9082031,30.533203 1.3375283,28.945615 1.1196612,27.194363 2.0820312,24.792969 2.7414736,24.011967 3.387438,23.475397 3.9863281,23.183594 c 0.604896,-0.29473 1.1551861,-0.350842 1.6523438,-0.195313 0.9943153,0.311059 1.828085,1.517821 2.2460937,3.623047 L 8.2109375,26.59375 C 8.4461096,23.69954 9.04199,21.675944 9.9082031,20.355469 10.766611,19.046891 11.882567,18.425067 13.224609,18.283203 Z"
       id="path2738"
       inkscape:connector-curvature="0" />
  </g>
</svg>
