<svg width="25.757" height="93.378" version="1.1" viewBox="0 0 25.757 93.378" xmlns="http://www.w3.org/2000/svg">
  <g transform="matrix(1.0162 0 0 1.0162 -97.324 -62.363)">
    <g transform="translate(-17.693,-16.637)">
      <path d="m118.54 118.24c3.8754-1.4786 8.1011-0.7794 12.095-0.28348 1.5683 1.4809 2.9046 3.334 3.047 5.5554 0.53344 2.3686 0.24975 4.8765 0.28532 7.3025-0.19628 5.8955-0.88076 11.78-1.8879 17.586-1.4107 5.7033-2.8213 11.407-4.232 17.11-1.2785 1.1974-2.3191 2.7894-3.0889 4.2243-1.0212-0.36135-1.0211-2.6806-2.5484-3.1784-2.1241-1.297-1.7466-4.2618-2.602-6.3777-1.4631-6.054-2.7682-12.152-3.986-18.256-0.67124-6.3809-2.1752-13.126 0.34948-19.304 0.63725-1.5744 1.5131-3.0487 2.5683-4.3786z" style="fill:none;stroke-width:.26458px;stroke:#000"/>
      <path d="m115.19 124.81c1.0629 0.12517 2.2698 0.25016 3.274 0.4676 0.6832 0.15313 1.4379 0.0331 2.0713 0.2672" style="fill:none;stroke-width:.26458px;stroke:#000"/>
      <path d="m114.59 126.88c0.93355 0.36324 1.9244 0.44946 2.8731 0.60126 1.2173 0.14431 2.4986 0.0305 3.7418 0.0668" style="fill:none;stroke-width:.26458px;stroke:#000"/>
      <path d="m133.97 132.36c-1.2592 0.0503-2.4543-0.0549-3.6749-0.1336-0.55331-0.0763-1.1643-0.14123-1.8709-0.26723" style="fill:none;stroke-width:.26458px;stroke:#000"/>
      <path d="m134.04 134.1c-1.6299 0.0108-3.2179 0.0112-4.8108-0.1336-0.22202-0.29031-0.95697-0.0611-1.3363-0.1336" style="fill:none;stroke-width:.26458px;stroke:#000"/>
      <path d="m115.46 139.71c1.078 0.39547 2.315 0.11549 3.4663 0.20045h1.9459" style="fill:none;stroke-width:.26458px;stroke:#000"/>
      <path d="m132.24 147.75c0.66529-1.4966-0.70283-1.2206-1.7077-1.2194-1.1479 0.0878-2.1909-0.15991-3.3164-0.1336-0.0184-0.23237-0.83517-0.0967-1.1359-0.13364" style="fill:none;stroke-width:.26458px;stroke:#000"/>
      <path d="m118.33 155.21c0.89357 0.15598 1.781 0.32688 2.7638 0.2672 0.86175-0.0214 1.7059 0.0879 2.4478-0.2004l-0.0668 0.0668" style="fill:none;stroke-width:.26458px;stroke:#000"/>
      <path d="m118.73 156.68c1.1235 0.28582 2.3668 0.0641 3.5413 0.13363 0.63225-0.0393 1.2512-0.0755 1.804-0.26723" style="fill:none;stroke-width:.26458px;stroke:#000"/>
    </g>
  </g>
  <g transform="translate(1.7789 -17.941)">
    <path d="m13.252 17.941-0.02734 2e-3c-1.4429 0.14257-2.6792 0.83932-3.5918 2.2305-0.83695 1.2759-1.3736 3.2121-1.6465 5.7676-0.46814-1.7426-1.2116-2.9434-2.2481-3.2676-0.58619-0.18338-1.2342-0.10978-1.8965 0.21289s-1.3459 0.89011-2.0332 1.709l-0.015625 0.02148-0.00977 0.02344c-1.0055 2.4871-0.77617 4.3608-0.18555 6.0039 0.52206 1.4524 1.2514 2.7455 1.7188 4.1523-0.58199-0.59249-1.2682-1.2399-2.084-1.6309-0.50829-0.24358-1.0168-0.39924-1.4785-0.38672-0.46169 0.01253-0.88476 0.2159-1.1348 0.6543l-0.00977 0.01758-0.00586 0.02148c-0.78136 2.9724-0.28427 5.4639 0.75781 7.7559 0.97212 2.1381 2.4274 4.1127 3.752 6.1836-0.41958-0.28528-0.84948-0.59564-1.4238-0.6582-0.78872-0.08592-1.6366 0.12418-2.1602 0.85938l-0.03125 0.04297v0.05273c0.011689 1.5031 0.081603 3.0465 0.92773 4.7617 0.84613 1.7153 2.4611 3.594 5.5352 5.8105l0.052734 0.03906 0.064453-0.0098c2.7739-0.35736 5.746-0.32011 8.9434 0.16016l0.08789 0.01172 0.05859-0.06445c4.3297-4.7083 6.7459-7.9452 7.9141-10.154 0.58407-1.1046 0.85715-1.9531 0.89258-2.6133 0.03543-0.6602-0.18491-1.1426-0.57422-1.4316-0.77861-0.57799-2.0962-0.43239-3.3281-0.11523-1.0013 0.2578-1.7355 0.6233-2.2969 0.92969 1.8358-2.4789 3.3423-4.661 4.3203-6.3867 1.0463-1.8462 1.5972-3.254 1.5977-4.2656 2.2e-4 -0.50579-0.14796-0.92331-0.45703-1.209s-0.75976-0.42918-1.332-0.45312c-1.0555-0.04417-2.6783 0.40944-4.6777 1.1543 1.8632-2.9694 3.0135-5.2974 3.5527-6.9902 0.28102-0.88217 0.40741-1.6038 0.4043-2.1816-0.0031-0.57787-0.13729-1.0202-0.40234-1.3164-0.26505-0.29619-0.65245-0.42508-1.0879-0.4043-0.43544 0.02078-0.92755 0.18319-1.459 0.46289-0.96724 0.50907-2.077 1.5223-3.1602 2.7656 0.06677-1.6095 0.30868-3.3978 0.24414-4.918-0.03477-0.81893-0.15935-1.5612-0.4707-2.1523-0.31135-0.59115-0.82147-1.0244-1.5703-1.1914zm-0.02734 0.3418c0.64743 0.15202 1.0613 0.49567 1.332 1.0098 0.27482 0.52179 0.39991 1.2185 0.43359 2.0117 0.06736 1.5865-0.2268 3.546-0.26562 5.2773l-0.0098 0.47656 0.30273-0.36719c1.1634-1.4124 2.3657-2.4279 3.3711-2.957 0.50271-0.26458 0.95523-0.40641 1.3203-0.42383 0.36509-0.01742 0.63343 0.07953 0.82617 0.29492 0.19274 0.21539 0.31747 0.57048 0.32031 1.0977 0.0028 0.52718-0.11665 1.22-0.39062 2.0801-0.54795 1.7201-1.7134 4.1119-3.7129 7.252l-0.26953 0.42383 0.46875-0.18164c2.2411-0.87196 3.8909-1.2724 4.9395-1.2285 0.5243 0.02194 0.88918 0.15088 1.1211 0.36523 0.23191 0.21436 0.35176 0.52281 0.35156 0.9668-3.86e-4 0.88797-0.51986 2.2756-1.5547 4.1016-1.0348 1.826-2.5781 4.0972-4.5996 6.7988l0.22656 0.23438c0.3708-0.26153 1.5229-0.78587 2.7188-1.0938 1.1959-0.30788 2.4455-0.38541 3.0488 0.0625 0.30169 0.22395 0.47464 0.56556 0.44336 1.1484-0.03128 0.58288-0.28622 1.3963-0.85742 2.4766-1.1368 2.1499-3.5324 5.367-7.8125 10.027-3.1591-0.46638-6.1048-0.50391-8.8613-0.15625-3.014-2.181-4.5842-4.0136-5.3945-5.6562-0.80205-1.6259-0.87536-3.0761-0.88867-4.5469 0.44533-0.59152 1.1265-0.77089 1.8203-0.69531 0.709 0.07724 1.4072 0.42624 1.748 0.79883l0.26172-0.19726c-1.4086-2.2524-2.9786-4.3453-4-6.5918-1.0174-2.2378-1.4908-4.6232-0.74219-7.5039 0.1957-0.33182 0.47109-0.46841 0.84375-0.47852 0.37871-0.01027 0.84669 0.12374 1.3262 0.35352 0.95896 0.45954 1.9636 1.292 2.4844 1.9414l0.28711-0.14453c-0.43908-1.7044-1.3798-3.1317-1.9531-4.7266-0.57067-1.5876-0.78854-3.3388 0.17383-5.7402 0.65944-0.781 1.3054-1.3176 1.9043-1.6094 0.6049-0.29473 1.1552-0.35084 1.6523-0.19531 0.99432 0.31106 1.8281 1.5178 2.2461 3.623l0.32617-0.017578c0.23517-2.8942 0.83105-4.9178 1.6973-6.2383 0.85841-1.3086 1.9744-1.9304 3.3164-2.0723z" style="color-rendering:auto;color:#000000;dominant-baseline:auto;font-feature-settings:normal;font-variant-alternates:normal;font-variant-caps:normal;font-variant-ligatures:normal;font-variant-numeric:normal;font-variant-position:normal;image-rendering:auto;isolation:auto;mix-blend-mode:normal;shape-padding:0;shape-rendering:auto;solid-color:#000000;text-decoration-color:#000000;text-decoration-line:none;text-decoration-style:solid;text-indent:0;text-orientation:mixed;text-transform:none;white-space:normal"/>
  </g>
</svg>
