<?xml version="1.0" encoding="UTF-8" standalone="no"?>
<!-- Created with Inkscape (http://www.inkscape.org/) -->

<svg
   xmlns:dc="http://purl.org/dc/elements/1.1/"
   xmlns:cc="http://creativecommons.org/ns#"
   xmlns:rdf="http://www.w3.org/1999/02/22-rdf-syntax-ns#"
   xmlns:svg="http://www.w3.org/2000/svg"
   xmlns="http://www.w3.org/2000/svg"
   xmlns:sodipodi="http://sodipodi.sourceforge.net/DTD/sodipodi-0.dtd"
   xmlns:inkscape="http://www.inkscape.org/namespaces/inkscape"
   width="210mm"
   height="297mm"
   viewBox="0 0 210 297"
   version="1.1"
   id="svg5043"
   inkscape:version="0.92.3 (2405546, 2018-03-11)"
   sodipodi:docname="danvers.svg">
  <defs
     id="defs5037" />
  <sodipodi:namedview
     id="base"
     pagecolor="#ffffff"
     bordercolor="#666666"
     borderopacity="1.0"
     inkscape:pageopacity="0.0"
     inkscape:pageshadow="2"
     inkscape:zoom="1.979899"
     inkscape:cx="416.53389"
     inkscape:cy="632.89745"
     inkscape:document-units="mm"
     inkscape:current-layer="layer1"
     showgrid="false"
     inkscape:window-width="1920"
     inkscape:window-height="1012"
     inkscape:window-x="-8"
     inkscape:window-y="-8"
     inkscape:window-maximized="1" />
  <metadata
     id="metadata5040">
    <rdf:RDF>
      <cc:Work
         rdf:about="">
        <dc:format>image/svg+xml</dc:format>
        <dc:type
           rdf:resource="http://purl.org/dc/dcmitype/StillImage" />
        <dc:title></dc:title>
      </cc:Work>
    </rdf:RDF>
  </metadata>
  <g
     inkscape:label="Layer 1"
     inkscape:groupmode="layer"
     id="layer1">
    <g
       transform="translate(-17.693138,-16.637254)"
       style="display:inline"
       id="g4981">
      <path
         style="fill:none;stroke:#000000;stroke-width:0.26458332px;stroke-linecap:butt;stroke-linejoin:miter;stroke-opacity:1"
         d="m 118.54278,118.24088 c 3.87535,-1.47856 8.10112,-0.7794 12.09524,-0.28348 1.56834,1.48088 2.90465,3.33399 3.04695,5.5554 0.53344,2.36858 0.24975,4.87651 0.28532,7.30252 -0.19628,5.89552 -0.88076,11.78032 -1.88787,17.58626 -1.41066,5.70332 -2.82132,11.40663 -4.23198,17.10995 -1.2785,1.19745 -2.31913,2.78935 -3.08892,4.22429 -1.02116,-0.36135 -1.02113,-2.68056 -2.54845,-3.17841 -2.12406,-1.29696 -1.74664,-4.26183 -2.60205,-6.37772 -1.46314,-6.054 -2.76818,-12.15194 -3.98598,-18.25623 -0.67124,-6.38092 -2.17516,-13.12562 0.34948,-19.30397 0.63725,-1.57445 1.51311,-3.04874 2.56826,-4.37861 z"
         id="path3795"
         inkscape:connector-curvature="0" />
      <path
         style="fill:none;stroke:#000000;stroke-width:0.26458332px;stroke-linecap:butt;stroke-linejoin:miter;stroke-opacity:1"
         d="m 115.19316,124.81161 c 1.06287,0.12517 2.26985,0.25016 3.27401,0.4676 0.6832,0.15313 1.4379,0.0331 2.07129,0.2672"
         id="path80"
         inkscape:connector-curvature="0" />
      <path
         style="fill:none;stroke:#000000;stroke-width:0.26458332px;stroke-linecap:butt;stroke-linejoin:miter;stroke-opacity:1"
         d="m 114.59181,126.88294 c 0.93355,0.36324 1.92439,0.44946 2.87309,0.60126 1.21726,0.14431 2.49863,0.0305 3.74176,0.0668"
         id="path82"
         inkscape:connector-curvature="0" />
      <path
         style="fill:none;stroke:#000000;stroke-width:0.26458332px;stroke-linecap:butt;stroke-linejoin:miter;stroke-opacity:1"
         d="m 133.96885,132.36197 c -1.2592,0.0503 -2.45427,-0.0549 -3.67492,-0.1336 -0.55331,-0.0763 -1.16432,-0.14123 -1.87087,-0.26723"
         id="path84"
         inkscape:connector-curvature="0" />
      <path
         style="fill:none;stroke:#000000;stroke-width:0.26458332px;stroke-linecap:butt;stroke-linejoin:miter;stroke-opacity:1"
         d="m 134.03567,134.09922 c -1.62993,0.0108 -3.21788,0.0112 -4.81082,-0.1336 -0.22202,-0.29031 -0.95697,-0.0611 -1.33634,-0.1336"
         id="path86"
         inkscape:connector-curvature="0" />
      <path
         style="fill:none;stroke:#000000;stroke-width:0.26458332px;stroke-linecap:butt;stroke-linejoin:miter;stroke-opacity:1"
         d="m 115.46043,139.71188 c 1.07801,0.39547 2.31503,0.11549 3.46631,0.20045 0.64863,0 1.29727,0 1.9459,0"
         id="path88"
         inkscape:connector-curvature="0" />
      <path
         style="fill:none;stroke:#000000;stroke-width:0.26458332px;stroke-linecap:butt;stroke-linejoin:miter;stroke-opacity:1"
         d="m 132.24441,147.74665 c 0.66529,-1.49658 -0.70283,-1.2206 -1.70769,-1.21939 -1.14792,0.0878 -2.1909,-0.15991 -3.31639,-0.1336 -0.0184,-0.23237 -0.83517,-0.0967 -1.13588,-0.13364"
         id="path90"
         inkscape:connector-curvature="0" />
      <path
         style="fill:none;stroke:#000000;stroke-width:0.26458332px;stroke-linecap:butt;stroke-linejoin:miter;stroke-opacity:1"
         d="m 118.33358,155.21351 c 0.89357,0.15598 1.78095,0.32688 2.76385,0.2672 0.86175,-0.0214 1.70588,0.0879 2.44779,-0.2004 l -0.0668,0.0668"
         id="path92"
         inkscape:connector-curvature="0" />
      <path
         style="fill:none;stroke:#000000;stroke-width:0.26458332px;stroke-linecap:butt;stroke-linejoin:miter;stroke-opacity:1"
         d="m 118.73449,156.6835 c 1.12349,0.28582 2.36679,0.0641 3.54132,0.13363 0.63225,-0.0393 1.25125,-0.0755 1.80404,-0.26723"
         id="path94"
         inkscape:connector-curvature="0" />
    </g>
  </g>
</svg>
