<svg width="15.643" height="35.15" version="1.1" viewBox="0 0 15.643 35.15" xmlns="http://www.w3.org/2000/svg">
  <g transform="translate(-46.699 -94.653)" style="fill:none">
    <path d="m54.457 129.66-0.80181-0.0668-0.20046-0.66817c-1.8968-0.6738-3.5203-1.2709-4.7106-2.7395-0.55188-1.4387-0.76017-2.815-0.33408-4.0759 0.36878-2.2044 1.716-2.9954 2.8397-4.1093l6.214-0.0334c1.1452 0.64342 2.0501 1.5959 2.5725 3.0402 0.68365 1.4856 0.33005 2.8768 0.06682 4.2763-0.68256 1.0738-1.3076 2.1955-2.5056 2.8397-0.9874 0.34154-2.0077 0.58391-3.0736 0.93544z" style="fill:none;stroke-width:.26458px;stroke:#000"/>
    <path d="m60.353 123.01h-0.25057c-0.0056 0-0.01124-1e-3 -0.01669 0-0.02252 4e-3 -0.04417 0.0129-0.06682 0.0167-0.03258 5e-3 -0.06779-6e-3 -0.10023 0-0.0122 2e-3 -0.02132 0.0137-0.03341 0.0167-0.0108 3e-3 -0.02228 0-0.03341 0h-0.46772c-4e-3 0-0.06307 2e-3 -0.06682 0-7e-3 -4e-3 -0.0092-0.0142-0.01669-0.0167-0.01056-4e-3 -0.02228 0-0.03341 0-0.01823 0-0.12281 4e-3 -0.13364 0-0.0118-4e-3 -0.02159-0.0128-0.03341-0.0167-0.01148-4e-3 -0.04026 5e-3 -0.05011 0-7e-3 -4e-3 -0.0097-0.0132-0.0167-0.0167-5e-3 -2e-3 -0.01114 0-0.01669 0h-0.10021" style="fill:none;stroke-width:.26458px;stroke:#000"/>
    <path d="m60.303 123.89h-0.11693c-0.01114 0-0.02344 5e-3 -0.03341 0-5e-3 -2e-3 5e-3 -0.0142 0-0.0167-0.03341-0.0167-0.02506 8e-3 -0.05012 0-0.0118-4e-3 -0.02119-0.0143-0.03341-0.0167-0.01638-3e-3 -0.03341 0-0.05011 0-0.0056 0-0.01154 2e-3 -0.01669 0-0.02313-9e-3 -0.04288-0.0266-0.06682-0.0334-0.01333-4e-3 -0.09561 0-0.11693 0h-0.30068c-0.01193 0-0.09168 3e-3 -0.10022 0-0.0075-2e-3 -0.0091-0.0148-0.0167-0.0167-0.01622-4e-3 -0.03341 0-0.05011 0h-0.45102" style="fill:none;stroke-width:.26458px;stroke:#000"/>
    <path d="m48.509 125.58h1.019c4e-3 0 0.06307 2e-3 0.06682 0 7e-3 -4e-3 0.0097-0.0132 0.01669-0.0167 0.0044-2e-3 0.05808 0 0.06681 0h0.55124" style="fill:none;stroke-width:.26458px;stroke:#000"/>
    <path d="m48.744 126.19c0.07758 0.0257 0.15465 0.053 0.23273 0.0772 0.01093 3e-3 0.05154 0 0.06682 0h0.33408c0.01114 0 0.02259 3e-3 0.03341 0 0.01709-4e-3 0.03303-0.0124 0.05011-0.0167 0.0054-1e-3 0.01114 0 0.01669 0h0.11692c0.0056 0 0.01172 2e-3 0.01669 0 7e-3 -4e-3 0.0097-0.0132 0.0167-0.0167 0.0051-3e-3 0.04259 0 0.05011 0h0.45102" style="fill:none;stroke-width:.26458px;stroke:#000"/>
  </g>
  <path d="m4.5508 23.347c-3.3081-2.5417-3.4431-4.2856-3.4557-6.0121 0.52304-0.78253 1.6753-0.44229 2.0857 0.035614-1.5174-2.5852-3.4061-4.8303-2.5724-8.2098 0.48224-0.90105 2.0837 0.2508 2.6694 1.029-0.46512-1.9238-2.0267-3.2788-0.95475-6.1039 1.4632-1.8576 2.8446-1.3772 3.3027 1.081 0.25563-3.3521 1.2936-4.7196 2.8076-4.879 1.5278 0.36312 0.93267 2.9075 0.8911 4.8831 2.5382-3.2835 5.415-2.9102 1.082 4.3406 4.8651-2.017 4.6185 0.25188 0.24302 6.4828 0.89373-0.67168 9.4652-3.5146 0.1152 7.3194z" style="fill:none;stroke-width:.18397px;stroke:#000"/>
</svg>
